#Comment line ignore any data following # character 
#Hierarchical Translation and Rotation (.htr) file 
[Header]	
#Header keywords are followed by a single value 
FileType HTR		#Single word string
DataType HTRS		#Translation followed by rotation and scale data
FileVersion 1		#integer
NumSegments 64		#integer
NumFrames 3		#integer
DataFrameRate 30		#integer, data frame rate in this file
EulerRotationOrder ZYX
CalibrationUnits mm
RotationUnits Degrees
GlobalAxisofGravity Y
BoneLengthAxis Y
ScaleFactor 1.00
[SegmentNames&Hierarchy]
#CHILD	PARENT
Pinger_Root GLOBAL
Pelvis Pinger_Root
L_Hip Pelvis
R_Hip Pelvis
Rear_Leg01 Pelvis
Spine1 Pelvis
L_Leg01 L_Hip
L_Leg02 L_Leg01
L_Leg03 L_Leg02
L_Foot L_Leg03
L_Toe1_01 L_Foot
L_Toe2_01 L_Foot
L_Toe3_01 L_Foot
planeAlignerLeft L_Foot
L_Toe1_02 L_Toe1_01
L_Toe1_03 L_Toe1_02
L_Toe2_02 L_Toe2_01
L_Toe2_03 L_Toe2_02
L_Toe3_02 L_Toe3_01
L_Toe3_03 L_Toe3_02
planeLockWeightLeft planeAlignerLeft
R_Leg01 R_Hip
R_Leg02 R_Leg01
R_Leg03 R_Leg02
R_Foot R_Leg03
planeAlignerRight R_Foot
R_Toe1_01 R_Foot
R_Toe2_01 R_Foot
R_Toe3_01 R_Foot
planeLockWeightRight planeAlignerRight
R_Toe1_02 R_Toe1_01
R_Toe1_03 R_Toe1_02
R_Toe2_02 R_Toe2_01
R_Toe2_03 R_Toe2_02
R_Toe3_02 R_Toe3_01
R_Toe3_03 R_Toe3_02
Rear_Leg02 Rear_Leg01
Rear_Leg03 Rear_Leg02
Rear_Leg04 Rear_Leg03
Rear_Foot Rear_Leg04
planeAlignerCenter Rear_Foot
Rear_Toe1_01 Rear_Foot
Rear_Toe2_01 Rear_Foot
Rear_Toe3_01 Rear_Foot
planeLockWeightCenter planeAlignerCenter
Rear_Toe1_02 Rear_Toe1_01
Rear_Toe1_03 Rear_Toe1_02
Rear_Toe2_02 Rear_Toe2_01
Rear_Toe2_03 Rear_Toe2_02
Rear_Toe3_02 Rear_Toe3_01
Rear_Toe3_03 Rear_Toe3_02
Back_Bone Spine1
Head Spine1
Motor_Bone Back_Bone
Ping_Mechanism Back_Bone
BN_LookIK Head
bottomMouth Head
L_Mouth01 Head
L_mouthFront Head
mouthGun Head
R_Mouth01 Head
R_mouthFront Head
TopMouth Head
weapon_bone Head
[BasePosition]
#SegmentName Tx, Ty, Tz, Rx, Ry, Rz, BoneLength
Pinger_Root 0.000000 0.000000 0.000000 -90.000000 0.000000 0.000000 10.000000 
Pelvis 0.000000 0.000000 0.000000 0.000000 0.000000 0.000000 10.000000 
L_Hip 0.000000 0.000000 0.000000 0.000000 0.000000 0.000000 10.000000 
R_Hip 0.000000 0.000000 0.000000 0.000000 0.000000 0.000000 10.000000 
Rear_Leg01 0.000000 0.000000 0.000000 0.000000 0.000000 0.000000 10.000000 
Spine1 0.000000 0.000000 0.000000 0.000000 0.000000 0.000000 10.000000 
L_Leg01 0.000000 0.000000 0.000000 0.000000 0.000000 0.000000 10.000000 
L_Leg02 0.000000 0.000000 0.000000 0.000000 0.000000 0.000000 10.000000 
L_Leg03 0.000000 0.000000 0.000000 0.000000 0.000000 0.000000 10.000000 
L_Foot 0.000000 0.000000 0.000000 0.000000 0.000000 0.000000 10.000000 
L_Toe1_01 0.000000 0.000000 0.000000 0.000000 0.000000 0.000000 10.000000 
L_Toe2_01 0.000000 0.000000 0.000000 0.000000 0.000000 0.000000 10.000000 
L_Toe3_01 0.000000 0.000000 0.000000 0.000000 0.000000 0.000000 10.000000 
planeAlignerLeft 0.000000 0.000000 0.000000 0.000000 0.000000 0.000000 10.000000 
L_Toe1_02 0.000000 0.000000 0.000000 0.000000 0.000000 0.000000 10.000000 
L_Toe1_03 0.000000 0.000000 0.000000 0.000000 0.000000 0.000000 10.000000 
L_Toe2_02 0.000000 0.000000 0.000000 0.000000 0.000000 0.000000 10.000000 
L_Toe2_03 0.000000 0.000000 0.000000 0.000000 0.000000 0.000000 10.000000 
L_Toe3_02 0.000000 0.000000 0.000000 0.000000 0.000000 0.000000 10.000000 
L_Toe3_03 0.000000 0.000000 0.000000 0.000000 0.000000 0.000000 10.000000 
planeLockWeightLeft 0.000000 0.000000 0.000000 0.000000 0.000000 0.000000 10.000000 
R_Leg01 0.000000 0.000000 0.000000 0.000000 0.000000 0.000000 10.000000 
R_Leg02 0.000000 0.000000 0.000000 0.000000 0.000000 0.000000 10.000000 
R_Leg03 0.000000 0.000000 0.000000 0.000000 0.000000 0.000000 10.000000 
R_Foot 0.000000 0.000000 0.000000 0.000000 0.000000 0.000000 10.000000 
planeAlignerRight 0.000000 0.000000 0.000000 0.000000 0.000000 0.000000 10.000000 
R_Toe1_01 0.000000 0.000000 0.000000 0.000000 0.000000 0.000000 10.000000 
R_Toe2_01 0.000000 0.000000 0.000000 0.000000 0.000000 0.000000 10.000000 
R_Toe3_01 0.000000 0.000000 0.000000 0.000000 0.000000 0.000000 10.000000 
planeLockWeightRight 0.000000 0.000000 0.000000 0.000000 0.000000 0.000000 10.000000 
R_Toe1_02 0.000000 0.000000 0.000000 0.000000 0.000000 0.000000 10.000000 
R_Toe1_03 0.000000 0.000000 0.000000 0.000000 0.000000 0.000000 10.000000 
R_Toe2_02 0.000000 0.000000 0.000000 0.000000 0.000000 0.000000 10.000000 
R_Toe2_03 0.000000 0.000000 0.000000 0.000000 0.000000 0.000000 10.000000 
R_Toe3_02 0.000000 0.000000 0.000000 0.000000 0.000000 0.000000 10.000000 
R_Toe3_03 0.000000 0.000000 0.000000 0.000000 0.000000 0.000000 10.000000 
Rear_Leg02 0.000000 0.000000 0.000000 0.000000 0.000000 0.000000 10.000000 
Rear_Leg03 0.000000 0.000000 0.000000 0.000000 0.000000 0.000000 10.000000 
Rear_Leg04 0.000000 0.000000 0.000000 0.000000 0.000000 0.000000 10.000000 
Rear_Foot 0.000000 0.000000 0.000000 0.000000 0.000000 0.000000 10.000000 
planeAlignerCenter 0.000000 0.000000 0.000000 0.000000 0.000000 0.000000 10.000000 
Rear_Toe1_01 0.000000 0.000000 0.000000 0.000000 0.000000 0.000000 10.000000 
Rear_Toe2_01 0.000000 0.000000 0.000000 0.000000 0.000000 0.000000 10.000000 
Rear_Toe3_01 0.000000 0.000000 0.000000 0.000000 0.000000 0.000000 10.000000 
planeLockWeightCenter 0.000000 0.000000 0.000000 0.000000 0.000000 0.000000 10.000000 
Rear_Toe1_02 0.000000 0.000000 0.000000 0.000000 0.000000 0.000000 10.000000 
Rear_Toe1_03 0.000000 0.000000 0.000000 0.000000 0.000000 0.000000 10.000000 
Rear_Toe2_02 0.000000 0.000000 0.000000 0.000000 0.000000 0.000000 10.000000 
Rear_Toe2_03 0.000000 0.000000 0.000000 0.000000 0.000000 0.000000 10.000000 
Rear_Toe3_02 0.000000 0.000000 0.000000 0.000000 0.000000 0.000000 10.000000 
Rear_Toe3_03 0.000000 0.000000 0.000000 0.000000 0.000000 0.000000 10.000000 
Back_Bone 0.000000 0.000000 0.000000 0.000000 0.000000 0.000000 10.000000 
Head 0.000000 0.000000 0.000000 0.000000 0.000000 0.000000 10.000000 
Motor_Bone 0.000000 0.000000 0.000000 0.000000 0.000000 0.000000 10.000000 
Ping_Mechanism 0.000000 0.000000 0.000000 0.000000 0.000000 0.000000 10.000000 
BN_LookIK 0.000000 0.000000 0.000000 0.000000 0.000000 0.000000 10.000000 
bottomMouth 0.000000 0.000000 0.000000 0.000000 0.000000 0.000000 10.000000 
L_Mouth01 0.000000 0.000000 0.000000 0.000000 0.000000 0.000000 10.000000 
L_mouthFront 0.000000 0.000000 0.000000 0.000000 0.000000 0.000000 10.000000 
mouthGun 0.000000 0.000000 0.000000 0.000000 0.000000 0.000000 10.000000 
R_Mouth01 0.000000 0.000000 0.000000 0.000000 0.000000 0.000000 10.000000 
R_mouthFront 0.000000 0.000000 0.000000 0.000000 0.000000 0.000000 10.000000 
TopMouth 0.000000 0.000000 0.000000 0.000000 0.000000 0.000000 10.000000 
weapon_bone 0.000000 0.000000 0.000000 0.000000 0.000000 0.000000 10.000000 
#Beginning of Data. Separated by tabs
#Fr	Tx	Ty	Tz	Rx	Ry	Rz	SF
[Pinger_Root]
26 -0.000017 2150.145508 0.000000 -0.000075 -0.000000 -0.000020 2150.145508
27 -0.000018 2211.894775 0.000000 -0.000075 -0.000000 -0.000020 2211.894775
28 -0.000018 2268.629639 0.000000 -0.000075 -0.000000 -0.000020 2268.629639
[Pelvis]
26 -320.905640 997.812805 4748.830078 37.106255 -70.859329 -18.617504 4863.125977
27 -312.578125 982.781006 4739.470703 38.001171 -71.158966 -18.291164 4850.375488
28 -303.834259 971.213867 4724.979980 38.134426 -71.901260 -17.323044 4833.322754
[L_Hip]
26 5.766392 125.831482 872.656799 -178.253311 -81.787758 87.381340 881.701050
27 5.766392 125.831482 872.656799 -178.253311 -81.787712 87.381248 881.701050
28 5.766392 125.831482 872.656799 -178.253342 -81.787758 87.381340 881.701050
[R_Hip]
26 5.765438 125.836372 -872.654907 -1.746690 81.787712 87.381248 881.699829
27 5.765438 125.836372 -872.654907 -1.746713 81.787666 87.381149 881.699829
28 5.765438 125.836372 -872.654907 -1.746678 81.787712 87.381248 881.699829
[Rear_Leg01]
26 -192.298416 -925.602966 -0.001907 157.367294 12.466549 -149.798096 945.367432
27 -192.298416 -925.602966 -0.001907 159.021835 9.730456 -152.283279 945.367432
28 -192.298416 -925.602966 -0.001907 160.627106 7.209886 -155.386383 945.367432
[Spine1]
26 290.604584 5.007505 0.000477 -25.137394 -3.983665 38.711182 290.647736
27 290.604584 5.007505 0.000477 -26.321716 -2.926001 38.766617 290.647736
28 290.604584 5.007505 0.000477 -27.231966 -1.786476 38.366901 290.647736
[L_Leg01]
26 761.932007 -0.002384 -0.069261 83.518318 0.988929 -93.096077 761.932068
27 761.932007 -0.002384 -0.069261 86.329575 2.897040 -93.393776 761.932068
28 761.932007 -0.002384 -0.069261 91.612724 1.018519 -94.385941 761.932068
[L_Leg02]
26 1441.140503 -0.000954 -0.000715 -1.468867 0.578629 -98.842224 1441.140503
27 1441.140503 -0.000954 -0.000715 -1.485374 0.540516 -97.315582 1441.140503
28 1441.140503 -0.000954 -0.000715 -1.418602 0.445989 -99.982712 1441.140503
[L_Leg03]
26 1686.963989 -0.000715 -0.000954 0.043642 -0.010390 98.833206 1686.963989
27 1686.963989 -0.000715 -0.000954 0.036550 -0.010284 100.187431 1686.963989
28 1686.963989 -0.000715 -0.000954 0.026217 -0.006666 103.676659 1686.963989
[L_Foot]
26 3041.570068 -30.715107 11.297464 -14.505098 7.604212 77.410484 3041.746094
27 3041.570068 -30.715107 11.297464 -14.497992 9.226282 76.609314 3041.746094
28 3041.570068 -30.715107 11.297464 -16.954332 11.456081 65.494553 3041.746094
[L_Toe1_01]
26 -188.216690 -224.732346 -21.137953 88.797935 -1.559055 -145.581085 293.899567
27 -188.216690 -224.732346 -21.137953 88.795212 -1.559940 -145.564560 293.899567
28 -188.216690 -224.732346 -21.137953 88.536530 -0.856517 -134.761154 293.899567
[L_Toe2_01]
26 200.746536 -219.926590 148.838394 -74.736740 -10.371796 -59.427570 332.896027
27 200.746536 -219.926590 148.838394 -74.754890 -10.341147 -59.391903 332.896027
28 200.746536 -219.926590 148.838394 -74.773041 -10.310487 -59.356251 332.896027
[L_Toe3_01]
26 188.832520 -219.859131 -191.078659 -109.758827 12.705721 -61.564568 347.140900
27 188.832520 -219.859131 -191.078659 -109.693970 12.657052 -61.368309 347.140900
28 188.832520 -219.859131 -191.078659 -109.629318 12.608167 -61.172146 347.140900
[planeAlignerLeft]
26 -78.828873 -810.475403 0.040436 0.000000 -89.934387 -90.068069 814.299866
27 -78.008652 -811.161621 0.039673 0.000000 -89.920876 -90.070709 814.903992
28 -85.158424 -811.157898 1.954872 0.000000 -89.925987 -90.073380 815.618103
[L_Toe1_02]
26 413.761139 0.000477 0.000000 0.001386 -25.749786 0.001386 413.761139
27 413.761139 0.000477 0.000000 0.001386 -25.718618 0.001386 413.761139
28 413.761139 0.000477 0.000000 0.001397 -24.254644 0.001397 413.761139
[L_Toe1_03]
26 464.317322 0.000358 -0.000089 0.003124 45.860855 0.003124 464.317322
27 464.317322 0.000358 -0.000089 0.003167 46.495251 0.003167 464.317322
28 464.317322 0.000358 -0.000089 0.002628 36.955112 0.002628 464.317322
[L_Toe2_02]
26 342.235809 -0.000477 0.000238 0.001184 -74.454414 0.001184 342.235809
27 342.235809 -0.000477 0.000238 0.001185 -74.310425 0.001185 342.235809
28 342.235809 -0.000477 0.000238 0.001185 -74.166359 0.001185 342.235809
[L_Toe2_03]
26 420.210846 -0.000715 0.000000 -179.940277 88.928268 -179.936783 420.210846
27 420.210846 -0.000715 0.000000 -179.918549 89.208206 -179.915054 420.210846
28 420.210846 -0.000715 0.000000 0.000000 89.487183 0.003502 420.210846
[L_Toe3_02]
26 329.270111 0.000954 0.000000 0.001180 -78.259544 0.001180 329.270111
27 329.270111 0.000954 0.000000 0.001180 -78.104584 0.001180 329.270111
28 329.270111 0.000954 0.000000 0.001180 -77.949615 0.001180 329.270111
[L_Toe3_03]
26 439.137451 -0.001907 0.000954 -179.983917 86.308167 -179.980408 439.137451
27 439.137451 -0.001907 0.000954 -179.982605 86.559288 -179.979111 439.137451
28 439.137451 -0.001907 0.000954 -179.981094 86.810219 -179.977600 439.137451
[planeLockWeightLeft]
26 1000.000000 -0.000412 -0.000207 -0.011826 -0.004376 0.005620 1000.000000
27 1000.000000 -0.000420 -0.000200 -0.011826 -0.004376 0.005620 1000.000000
28 896.000427 -0.000248 -0.000134 -0.011826 -0.004376 0.005620 896.000427
[R_Leg01]
26 761.455627 -0.001907 -0.000358 101.095459 -36.954288 38.403389 761.455688
27 761.455627 -0.001907 -0.000358 106.062630 -30.144197 35.529366 761.455688
28 761.455627 -0.001907 -0.000358 110.094406 -20.877905 35.383614 761.455688
[R_Leg02]
26 1441.140625 0.000000 -0.000238 -0.278908 0.033804 -143.157898 1441.140625
27 1441.140625 0.000000 -0.000238 -0.213184 0.005149 -138.395538 1441.140625
28 1441.140625 0.000000 -0.000238 -0.067503 -0.018898 -128.880951 1441.140625
[R_Leg03]
26 1686.963989 0.000954 0.001431 -0.049366 0.013577 97.109406 1686.963989
27 1686.963989 0.000954 0.001431 -0.042177 0.013789 98.846245 1686.963989
28 1686.963989 0.000954 0.001431 -0.033375 0.012015 101.050438 1686.963989
[R_Foot]
26 3041.560059 -30.531288 -11.204481 31.157438 -27.876505 61.524113 3041.734131
27 3041.560059 -30.531288 -11.204481 29.752274 -23.919540 61.002659 3041.734131
28 3041.560059 -30.531288 -11.204481 28.476681 -20.349298 58.012890 3041.734131
[planeAlignerRight]
26 129.080139 -838.308716 -141.494751 0.000000 -89.923386 -90.052643 859.909241
27 56.826748 -769.208496 -146.181320 0.000000 -89.920876 -90.054550 785.034973
28 -77.362778 -640.881714 -147.178497 0.000000 -89.916069 -90.056450 662.099609
[R_Toe1_01]
26 -188.383347 -224.864899 21.052242 90.925888 2.861515 -149.330109 294.101532
27 -188.383347 -224.864899 21.052242 90.834244 3.007975 -152.665741 294.101532
28 -188.383347 -224.864899 21.052242 90.821114 2.836838 -156.305435 294.101532
[R_Toe2_01]
26 200.637817 -220.002121 -148.787384 -102.361725 -4.599206 -60.457367 332.857574
27 200.637817 -220.002121 -148.787384 -101.588966 -1.164031 -54.576187 332.857574
28 200.637817 -220.002121 -148.787384 -100.814514 5.423939 -45.050369 332.857574
[R_Toe3_01]
26 188.606735 -220.092957 191.126343 -49.996033 -35.935757 -87.965645 347.192566
27 188.606735 -220.092957 191.126343 -52.099766 -36.976242 -82.192390 347.192566
28 188.606735 -220.092957 191.126343 -58.714985 -39.735191 -67.110359 347.192566
[planeLockWeightRight]
26 999.999817 0.000305 -0.000429 -0.011823 -0.004379 -0.000027 999.999817
27 1000.000000 0.000305 -0.000429 -0.011823 -0.004379 -0.000027 1000.000000
28 1000.000000 0.000305 -0.000430 -0.011823 -0.004379 -0.000027 1000.000000
[R_Toe1_02]
26 413.762085 0.000477 -0.000119 0.001397 -24.279928 0.001397 413.762085
27 413.762085 0.000477 -0.000119 0.001392 -24.897463 0.001392 413.762085
28 413.762085 0.000477 -0.000119 0.001384 -25.982470 0.001384 413.762085
[R_Toe1_03]
26 464.317810 0.000000 0.001088 0.007450 71.873833 0.007450 464.317810
27 464.317810 0.000000 0.001088 0.006149 67.993042 0.006149 464.317810
28 464.317810 0.000000 0.001088 0.001919 54.771465 0.000073 464.317810
[R_Toe2_02]
26 342.234741 -0.000954 0.000238 -0.002339 -76.482704 -0.002339 342.234741
27 342.234741 -0.000954 0.000238 -0.002341 -75.929619 -0.002341 342.234741
28 342.234741 -0.000954 0.000238 -0.002337 -77.601593 -0.002337 342.234741
[R_Toe2_03]
26 420.210846 0.000715 -0.000268 -179.990326 81.682068 -179.993835 420.210846
27 420.210846 0.000715 -0.000268 -179.987762 83.711349 -179.991272 420.210846
28 420.210846 0.000715 -0.000268 -179.993149 77.048470 -179.996658 420.210846
[R_Toe3_02]
26 329.270355 -0.000477 -0.000954 -0.002376 -65.795952 -0.002376 329.270355
27 329.270355 -0.000477 -0.000954 -0.000582 -73.070152 -0.000582 329.270355
28 329.270355 -0.000477 -0.000954 0.001178 -80.344292 0.001178 329.270355
[R_Toe3_03]
26 439.137939 0.000238 0.001431 0.005605 65.829430 0.005605 439.137939
27 439.137939 0.000238 0.001431 0.013877 80.296837 0.013877 439.137939
28 439.137939 0.000238 0.001431 -179.995728 79.047539 -179.992218 439.137939
[Rear_Leg02]
26 1162.777710 -0.029802 0.005960 -38.013592 11.773096 -159.830704 1162.777710
27 1162.777710 -0.029802 0.005960 -39.269279 12.133048 -164.922867 1162.777710
28 1162.777710 -0.029802 0.005960 -40.261219 12.815116 -169.134796 1162.777710
[Rear_Leg03]
26 607.192505 -0.013351 -0.073195 0.009912 -0.006157 80.050026 607.192505
27 607.192505 -0.013351 -0.073195 0.009911 -0.006159 80.073280 607.192505
28 607.192505 -0.013351 -0.073195 0.009909 -0.006161 80.096519 607.192505
[Rear_Leg04]
26 995.874512 -0.020504 -0.011921 -0.044867 -0.012315 103.459496 995.874573
27 995.874512 -0.020504 -0.011921 -0.044873 -0.012294 103.513031 995.874573
28 995.874512 -0.020504 -0.011921 -0.044824 -0.012470 103.065262 995.874573
[Rear_Foot]
26 3096.176270 -0.067472 -0.041425 92.069168 51.316067 -96.960220 3096.176270
27 3096.176270 -0.067472 -0.041425 90.460983 50.277267 -96.320183 3096.176270
28 3096.176270 -0.067472 -0.041425 88.850250 49.562550 -95.920135 3096.176270
[planeAlignerCenter]
26 11.425588 30.681751 -826.052063 0.001908 -0.001367 161.239731 826.700623
27 12.702785 36.738182 -823.993042 0.001892 -0.001391 162.657867 824.909424
28 12.976276 42.195438 -817.828186 0.001876 -0.001415 164.077530 819.018799
[Rear_Toe1_01]
26 0.653352 83.966492 -371.173737 -0.655492 29.018127 69.810921 380.553192
27 0.653352 83.966492 -371.173737 -0.599175 28.966993 71.246429 380.553192
28 0.653352 83.966492 -371.173737 -0.544376 28.914642 72.680916 380.553192
[Rear_Toe2_01]
26 178.200760 -294.826019 -362.060547 -4.459446 53.049511 -98.436501 499.765686
27 178.200760 -294.826019 -362.060547 -4.118558 53.177071 -96.470818 499.765686
28 178.200760 -294.826019 -362.060547 -3.769637 53.297504 -94.498619 499.765686
[Rear_Toe3_01]
26 -153.359680 -308.780914 -362.060852 -6.309482 53.752354 -139.877625 499.952881
27 -153.359680 -308.780914 -362.060852 -6.080425 53.760872 -138.134369 499.952881
28 -153.359680 -308.780914 -362.060852 -5.851044 53.765247 -136.391144 499.952881
[planeLockWeightCenter]
26 1000.000366 0.000522 -0.000106 -0.011814 -0.004373 -0.000015 1000.000366
27 1000.000366 0.000530 -0.000105 -0.011814 -0.004373 -0.000015 1000.000366
28 1000.000366 0.000538 -0.000104 -0.011814 -0.004373 -0.000015 1000.000366
[Rear_Toe1_02]
26 379.707825 0.194073 0.000477 -0.004350 -33.559837 0.003045 379.707855
27 379.707825 0.194073 0.000477 -0.004350 -33.558849 0.003045 379.707855
28 379.707825 0.194073 0.000477 -0.004350 -33.557869 0.003045 379.707855
[Rear_Toe1_03]
26 500.129700 0.165701 0.000119 0.000826 69.872849 0.002602 500.129761
27 500.129700 0.165701 0.000119 -0.004936 69.028214 -0.001380 500.129761
28 500.129700 0.165701 0.000119 -0.004892 68.720963 -0.001334 500.129761
[Rear_Toe2_02]
26 340.494507 0.000238 -0.000954 0.001189 -72.429985 0.001189 340.494507
27 340.494507 0.000238 -0.000954 0.001187 -73.698112 0.001187 340.494507
28 340.494507 0.000238 -0.000954 0.001185 -74.966316 0.001185 340.494507
[Rear_Toe2_03]
26 433.103577 0.000000 0.000238 0.008466 74.052422 0.008466 433.103546
27 433.103577 0.000000 0.000238 0.009688 76.084457 0.009688 433.103546
28 433.103577 0.000000 0.000238 0.011528 78.302925 0.011528 433.103546
[Rear_Toe3_02]
26 340.494141 -0.000358 -0.000477 0.001183 -75.704330 0.001183 340.494171
27 340.494141 -0.000358 -0.000477 0.001182 -76.501587 0.001182 340.494171
28 340.494141 -0.000358 -0.000477 0.001181 -77.388138 0.001181 340.494171
[Rear_Toe3_03]
26 433.103577 0.001431 -0.000238 0.012510 79.233490 0.012510 433.103546
27 433.103577 0.001431 -0.000238 0.011898 80.951416 0.012337 433.103546
28 433.103577 0.001431 -0.000238 0.011102 82.671776 0.011979 433.103546
[Back_Bone]
26 1312.175781 -701.934692 0.000954 1.639940 -2.968003 -81.691750 1488.125488
27 1312.175781 -701.934692 0.000954 1.248029 -2.507055 -81.486397 1488.125488
28 1312.175781 -701.934692 0.000954 0.782427 -1.893105 -81.981491 1488.125488
[Head]
26 1406.159424 809.709290 0.001431 1.520307 -2.406359 3.571892 1622.625488
27 1406.159424 809.709290 0.001431 1.872874 -2.393802 3.103706 1622.625488
28 1406.159424 809.709290 0.001431 2.225352 -2.378366 2.635575 1622.625488
[Motor_Bone]
26 1158.364380 -417.834747 0.000477 -2.188163 -1.022762 -107.007042 1231.419434
27 1158.364380 -417.834747 0.000477 -2.074372 -0.843159 -106.828514 1231.419434
28 1158.364380 -417.834747 0.000477 -1.960022 -0.663910 -106.649628 1231.419434
[Ping_Mechanism]
26 1205.158936 -400.385742 88.796249 0.000103 -0.000053 82.120995 1273.028442
27 1205.674194 -402.861328 86.845398 0.000103 -0.000053 82.120995 1274.162354
28 1206.189453 -405.336914 84.894547 0.000103 -0.000053 82.120995 1275.303223
[BN_LookIK]
26 193.241119 1380.371704 -0.002861 0.000000 89.965736 -31.038179 1393.832153
27 193.241119 1380.371704 -0.002861 0.000000 89.965736 -31.038179 1393.832153
28 193.241119 1380.371704 -0.002861 0.000000 89.965736 -31.038179 1393.832153
[bottomMouth]
26 -435.092926 615.759399 -0.000954 -0.000022 0.000016 73.527184 753.966492
27 -435.092926 615.759399 -0.000954 -0.000022 0.000016 73.527184 753.966492
28 -435.092926 615.759399 -0.000954 -0.000022 0.000016 73.527184 753.966492
[L_Mouth01]
26 554.440979 7.658243 838.222046 150.204178 23.759130 109.605339 1005.027161
27 554.440979 7.658243 838.222046 150.204178 23.759130 109.605339 1005.027161
28 554.440979 7.658243 838.222046 150.204178 23.759130 109.605339 1005.027161
[L_mouthFront]
26 551.629089 934.514771 339.150421 0.000081 2.804060 79.119301 1136.941284
27 551.629089 934.514771 339.150421 0.000081 2.804060 79.119301 1136.941284
28 551.629089 934.514771 339.150421 0.000081 2.804060 79.119301 1136.941284
[mouthGun]
26 55.332661 1627.420898 0.000000 0.000023 0.000009 -11.038128 1628.361328
27 55.332661 1627.420898 0.000000 0.000023 0.000009 -11.038128 1628.361328
28 55.332661 1627.420898 0.000000 0.000023 0.000009 -11.038128 1628.361328
[R_Mouth01]
26 554.442383 7.659197 -838.223938 29.795891 -23.759109 109.605331 1005.029541
27 554.442383 7.659197 -838.223938 29.795891 -23.759109 109.605331 1005.029541
28 554.442383 7.659197 -838.223938 29.795891 -23.759109 109.605331 1005.029541
[R_mouthFront]
26 551.629089 934.514282 -339.151367 0.000029 -2.803930 79.119133 1136.941162
27 551.629089 934.514282 -339.151367 0.000029 -2.803930 79.119133 1136.941162
28 551.629089 934.514282 -339.151367 0.000029 -2.803930 79.119133 1136.941162
[TopMouth]
26 461.269867 -56.106091 -0.008583 -0.000059 -0.000268 92.025169 464.669525
27 461.269867 -56.106091 -0.008583 -0.000059 -0.000268 92.025169 464.669525
28 461.269867 -56.106091 -0.008583 -0.000059 -0.000268 92.025169 464.669525
[weapon_bone]
26 -987.239868 1448.372803 0.001431 0.000000 89.965736 -31.038221 1752.833740
27 -987.239868 1448.372803 0.001431 0.000000 89.965736 -31.038221 1752.833740
28 -987.239868 1448.372803 0.001431 0.000000 89.965736 -31.038221 1752.833740
